<svg xmlns="http://www.w3.org/2000/svg" width="423.105" height="110.215" viewBox="0 0 423.105 110.215"><path d="M37.324-93.633a.363.363,0,0,0,.41.41l-.41.879A11.735,11.735,0,0,1,39.082-87.6h.41a4.959,4.959,0,0,1,2.578-.879v1.758l-.41,2.168.82.41q-1.816,8.73-9.492,22.91L31.7-56.484v.879q8.672,2.813,8.672,8.613v2.578a.777.777,0,0,1-.879.879q0-3.633-3.867-6.035l-.879.41h-.879l-1.7-1.289H31.7v1.758l.879,1.289v.41l-.41.879-3.047-.41h-.41a10.041,10.041,0,0,0-5.625,3.867Q12.715-22.266,12.715-21.5q5.449,5.625,11.66,5.625,11.191,0,13.828-15.527,0-3.34-3.047-9.961l1.758,1.289v-.41q0-.469-3.457-4.336v-.41h.82l8.2,5.156q0,1.289,4.8,9.492v.469Q42.48-5.508,23.906-5.508H21.8q-7.734,0-15.117-5.625Q-.41,3.574-1.113,3.574h-.469A5.6,5.6,0,0,0-2.871-.352V-1.641l.879-1.289Q-2.754-4.1-3.281-8.555.527-14.473,13.594-46.113q5.566-6.738,9.9-24.609,1.992-1.523,7.793-15.586Q34.922-92.637,37.324-93.633ZM72.3-57.363q7.559.41,12.656.41h1.23a31.646,31.646,0,0,0,4.453-.41q.41.41,3.281.41l.82-.41.82.41,1.992-.41v.41a3.148,3.148,0,0,1,1.23-.41q2.461.41,2.461,1.23v.41q-2.52,0-3.281,3.633-.7,0-3.223,3.281-1.875,0-12.656,2.871l-3.633.41A23.434,23.434,0,0,1,76-45.937q-.293,0-2.461.41-6.914-.41-6.914-2.461.469,0,2.051-3.281v-.82l-.82-1.172v-.82q1.641-1.113,1.641-2.051A14.158,14.158,0,0,0,72.3-57.363ZM65.391-42.3l.82.41a.363.363,0,0,0,.41-.41l2.871.41H80.859q3.516,0,11.016.41l.41.82q-.645,0-6.914,7.324l-1.641-.41q-9.375,3.281-14.238,3.281a2.806,2.806,0,0,1-1.23-.41,21.112,21.112,0,0,1-3.691.41H61.348q-.645,0-1.641-1.641a25,25,0,0,0,1.23-4.453q-.937,0-1.23-2.051Q62.813-42.3,65.391-42.3ZM88.242-26.426q9.316,0,9.316,1.641v.41H95.977q-2.285,0-4.1,3.281-1.7,0-3.633,3.223a24.66,24.66,0,0,0-3.281-.352Q70.313-14.18,64.16-14.18H62.52l-1.992-.41a.725.725,0,0,1-.82.82H52.383q-2.871,0-2.871-2.051l1.23-2.051q-.41,0-.41-.352a2.806,2.806,0,0,1,1.23-.41A8.369,8.369,0,0,0,49.922-21.5q3.691-2.7,3.691-3.281a30.544,30.544,0,0,1,6.094-.82h8.555l2.051-.41v.41a.363.363,0,0,0,.41-.41Q83.32-26.426,88.242-26.426ZM119.648-6.973Q105.41-8.555,99.023-26.016a37.082,37.082,0,0,1-.41-4.8q6.328-28.008,28.008-28.008,10.664,0,14.063,7.852a15.635,15.635,0,0,0,1.172-4.219q3.926-6.855,6.5-7.91a.414.414,0,0,0,.469.469l-.469.938a13.087,13.087,0,0,1,1.875,5.1h.469a5.384,5.384,0,0,1,2.754-.937v1.875l-.41,2.344.879.469q.234,3.633-9.023,15.41Q123.4,3.4,122.637,3.984h-.469a5.767,5.767,0,0,0-1.406-4.16V-1.582l.938-1.406q-.82-1.289-4.687.938Q118.008-3.633,119.648-6.973Zm20.273-42.48q-1.23-.645-3.281-1.934l-.879.41h-.879l-1.7-1.289h-.469v1.758l.879,1.289v.469l-.41.879-3.105-.469h-.41L119.59-44.824a26.578,26.578,0,0,0-8.73,14.883q0,6.621,8.73,11.367a11.931,11.931,0,0,0,4.863,1.289q4.336-9.785,10.723-25.254A41.488,41.488,0,0,0,139.922-49.453ZM205.43-66.562l.469.879q0,.527-3.516,1.758,0,1.523-5.215,6.973h-2.637q-11.6,2.285-12.656,3.516,0,2.461-17.52,32.754Q157.5-6.68,152.168.293l-.879.41h-.469l-.879-.41.469-.879V-2.344a28.012,28.012,0,0,0-.879-3.516q.117-.879.879-.879l-.879-6.562q3.34-3.516,10.9-24.844l7.441-13.594h-4.8q-6.094-.293-6.094-2.168l2.578-3.457a29.691,29.691,0,0,0-.82-3.516q3.281-3.516,10.43-3.516L185.8-65.684v.41l.879-.41h3.457Q195.469-65.684,205.43-66.562Zm30.7,2.578h.879q1.113,3.4,2.578,4.336l2.168-.41a27.574,27.574,0,0,1,1.348,4.746q0,2.344-18.223,38.2l-1.348.82a.725.725,0,0,1-.82-.82q.82,0,.82-.879v-1.289a5.614,5.614,0,0,0-1.7-3.516,3.164,3.164,0,0,0,.41-1.289l-1.7-3.926q2.168-2.4,4.746-16.875Q233.672-63.984,236.133-63.984Zm-16.465,1.758h.879q1.055,3.4,2.578,4.336l2.168-.469a29.529,29.529,0,0,1,1.289,4.8q0,2.344-18.223,38.145l-1.289.879a.777.777,0,0,1-.879-.879.777.777,0,0,0,.879-.879v-1.289a5.4,5.4,0,0,0-1.7-3.457,3.164,3.164,0,0,0,.41-1.289l-1.758-3.926q2.168-2.4,4.8-16.934Q217.148-62.227,219.668-62.227ZM203.2-60.059h.82q1.113,3.4,2.637,4.336l2.168-.469a29.529,29.529,0,0,1,1.289,4.8q0,2.344-18.223,38.145l-1.289.879a.777.777,0,0,1-.879-.879.777.777,0,0,0,.879-.879V-15.41a5.332,5.332,0,0,0-1.758-3.457,2.885,2.885,0,0,0,.469-1.289l-1.758-3.926q2.168-2.4,4.746-16.934Q200.684-60.059,203.2-60.059ZM259.512-6.973q-14.238-1.582-20.625-19.043a37.082,37.082,0,0,1-.41-4.8q6.328-28.008,28.008-28.008,10.664,0,14.063,7.852a15.635,15.635,0,0,0,1.172-4.219q3.926-6.855,6.5-7.91a.414.414,0,0,0,.469.469l-.469.938a13.087,13.087,0,0,1,1.875,5.1h.469a5.384,5.384,0,0,1,2.754-.937v1.875l-.41,2.344.879.469q.234,3.633-9.023,15.41Q263.262,3.4,262.5,3.984h-.469a5.767,5.767,0,0,0-1.406-4.16V-1.582l.938-1.406q-.82-1.289-4.687.938Q257.871-3.633,259.512-6.973Zm20.273-42.48q-1.23-.645-3.281-1.934l-.879.41h-.879l-1.7-1.289h-.469v1.758l.879,1.289v.469l-.41.879-3.105-.469h-.41l-10.078,3.516a26.578,26.578,0,0,0-8.73,14.883q0,6.621,8.73,11.367a11.931,11.931,0,0,0,4.863,1.289q4.336-9.785,10.723-25.254A41.488,41.488,0,0,0,279.785-49.453Zm40.605-40.2h.879q0,1.172,2.637,3.105v.879h.469a5.128,5.128,0,0,0,3.105-1.289q.879.117.879.879a26.151,26.151,0,0,0-.879,4.863h.469q0,6.035-16,31.113v.469q10.9-6.68,14.18-6.68a3.228,3.228,0,0,0,1.348.469v.879H326.6l.41.879q-1.172,3.105-1.758,3.105.469,1.758,2.7,1.758v1.348a7.114,7.114,0,0,0-2.227,3.574q-8.906,7.617-15.586,10.2,3.105,5.273,9.375,32.93v.41l-.937.469h-.41Q317.285-6.5,312.832-6.5q0-2.227-4.922-4.922-1.172-7.031-7.969-17.754h-.469q-23.555,43.418-26.191,45.762h-.469v-.469a39.648,39.648,0,0,1,.879-4.863,17.01,17.01,0,0,1-.879-3.574l1.348-2.637a3.228,3.228,0,0,0-.469-1.348q0-7.559,3.984-11.543,14.063-34.1,26.25-52.441Q305.332-63.984,320.391-89.648Zm20.625,32.285q7.559.41,12.656.41h1.23a31.646,31.646,0,0,0,4.453-.41q.41.41,3.281.41l.82-.41.82.41,1.992-.41v.41a3.148,3.148,0,0,1,1.23-.41q2.461.41,2.461,1.23v.41q-2.52,0-3.281,3.633-.7,0-3.223,3.281-1.875,0-12.656,2.871l-3.633.41a23.434,23.434,0,0,1-2.461-.41q-.293,0-2.461.41-6.914-.41-6.914-2.461.469,0,2.051-3.281v-.82l-.82-1.172v-.82Q338.2-55.2,338.2-56.133A14.158,14.158,0,0,0,341.016-57.363ZM334.1-42.3l.82.41a.363.363,0,0,0,.41-.41l2.871.41H349.57q3.516,0,11.016.41l.41.82q-.645,0-6.914,7.324l-1.641-.41q-9.375,3.281-14.238,3.281a2.806,2.806,0,0,1-1.23-.41,21.112,21.112,0,0,1-3.691.41h-3.223q-.645,0-1.641-1.641a25,25,0,0,0,1.23-4.453q-.937,0-1.23-2.051Q331.523-42.3,334.1-42.3Zm22.852,15.879q9.316,0,9.316,1.641v.41h-1.582q-2.285,0-4.1,3.281-1.7,0-3.633,3.223a24.66,24.66,0,0,0-3.281-.352q-14.648,4.043-20.8,4.043H331.23l-1.992-.41a.725.725,0,0,1-.82.82h-7.324q-2.871,0-2.871-2.051l1.23-2.051q-.41,0-.41-.352a2.806,2.806,0,0,1,1.23-.41,8.369,8.369,0,0,0-1.641-2.871q3.691-2.7,3.691-3.281a30.544,30.544,0,0,1,6.094-.82h8.555l2.051-.41v.41a.363.363,0,0,0,.41-.41Q352.031-26.426,356.953-26.426ZM387.188-59l.82.41-.41.762q2.4,3.105,2.4,3.574a3.489,3.489,0,0,0,1.582-.352q7.324.352,12.363.352h1.172a36.554,36.554,0,0,0,4.395-.352q.41.352,3.164.352l.82-.352.762.352,1.992-.352v.352a3.143,3.143,0,0,1,1.23-.352q2.344.352,2.344,1.172v.41q-2.4,0-3.164,3.574-.7,0-3.164,3.164-1.816,0-12.363,2.813l-3.574.41q-.293,0-2.4-.41a21.6,21.6,0,0,0-4.336.762l.352.82q-6.738,12.949-6.738,14.3Q373.008-5.684,371.309-4.1l-.82-.41.41-.762V-6.5a16.492,16.492,0,0,1-1.992-2.344,3.148,3.148,0,0,0,.41-1.23q-.469,0-1.992-2.754,1.348-1.055,3.164-11.953a13.308,13.308,0,0,1,3.574-5.977l-.352-.82q2.578-6.68,4.746-8.73l-.41-.762q4.57-8.906,8.379-17.52Z" transform="translate(3.281 93.633)" fill="#fff"/></svg>